# xmcd CD database file
#
# Track frame offsets:
#	150
#	24537
#	44356
#	67966
#	91328
#	117425
#	143064
#	162706
#	185013
#	217773
#	237535
#	266484
#	291659
#
# Disc length: 4140 seconds
#
# Revision: 0
# Processed by: cddbd v1.4PL0 Copyright (c) Steve Scherf et al.
# Submitted via: CDex 1.50
#
DISCID=c7102a0d
DTITLE=Xavier Naidoo - Live
DYEAR=2001
DGENRE=Blues
TTITLE0=Seid Ihr mit mir
TTITLE1=20000 Meilen unter dem Meer
TTITLE2=Führ mich ans Licht
TTITLE3=Gute Aussichten
TTITLE4=Ich kann Dich sehen
TTITLE5=Mich belogen
TTITLE6=Eigentlich gut
TTITLE7=Sie sieht mich nicht
TTITLE8=Frei sein (This is not America)
TTITLE9=Flugzeuge im Bauch
TTITLE10=Nicht von dieser Welt
TTITLE11=Ernten was man säht
TTITLE12=Sag es laut
EXTD=YEAR: 2001
EXTT0=
EXTT1=
EXTT2=
EXTT3=
EXTT4=
EXTT5=
EXTT6=
EXTT7=
EXTT8=
EXTT9=
EXTT10=
EXTT11=
EXTT12=
PLAYORDER=
